<svg width="160" height="60" viewBox="0 0 160 60" fill="none" xmlns="http://www.w3.org/2000/svg">
  <rect width="160" height="60" fill="#0076B6"/>
  <path d="M20 15H30C35.5228 15 40 19.4772 40 25V35C40 40.5228 35.5228 45 30 45H20C14.4772 45 10 40.5228 10 35V25C10 19.4772 14.4772 15 20 15Z" fill="white"/>
  <path d="M25 20C22.2386 20 20 22.2386 20 25V35C20 37.7614 22.2386 40 25 40H30C32.7614 40 35 37.7614 35 35V25C35 22.2386 32.7614 20 30 20H25Z" fill="#0076B6"/>
  <path d="M50 20H55V40H50V20Z" fill="white"/>
  <path d="M60 20H65L70 30L75 20H80V40H75V30L70 40L65 30V40H60V20Z" fill="white"/>
  <path d="M85 20H100V25H95V40H90V25H85V20Z" fill="white"/>
  <path d="M105 20H120V25H110V28H118V33H110V35H120V40H105V20Z" fill="white"/>
  <path d="M125 20H140V25H130V28H138V33H130V35H140V40H125V20Z" fill="white"/>
</svg> 